<svg xmlns="http://www.w3.org/2000/svg" overflow="hidden"><defs><symbol id="icon-arrow" viewBox="0 0 22 32">
<path d="M19.408 17.471l-11.769 11.769c-0.813 0.814-2.129 0.814-2.934 0l-1.956-1.956c-0.813-0.814-0.813-2.129 0-2.934l8.342-8.342-8.342-8.342c-0.813-0.813-0.813-2.129 0-2.934l1.947-1.973c0.813-0.813 2.129-0.813 2.934 0l11.769 11.769c0.822 0.813 0.822 2.129 0.009 2.942z"></path>
</symbol><symbol id="icon-logo" viewBox="0 0 40 32">
<path d="M37.002 0.691c-3.74 0.213-11.173 0.986-15.761 3.8-0.317 0.194-0.496 0.539-0.496 0.9v24.874c0 0.79 0.862 1.289 1.589 0.922 4.721-2.38 11.549-3.030 14.925-3.207 1.153-0.061 2.049-0.986 2.049-2.096v-23.095c0.001-1.211-1.047-2.17-2.304-2.099zM18.066 4.491c-4.588-2.814-12.021-3.587-15.761-3.8-1.257-0.071-2.305 0.888-2.305 2.099v23.095c0 1.11 0.896 2.036 2.049 2.096 3.377 0.178 10.208 0.828 14.929 3.209 0.725 0.366 1.584-0.133 1.584-0.92v-24.891c0-0.362-0.179-0.693-0.496-0.888z"></path>
</symbol><symbol id="icon-facebook" viewBox="0 0 32 32">
<path d="M19 6h5v-6h-5c-3.86 0-7 3.14-7 7v3h-4v6h4v16h6v-16h5l1-6h-6v-3c0-0.542 0.458-1 1-1z"></path>
</symbol><symbol id="icon-facebook-filled" viewBox="0 0 32 32">
<path d="M29 0h-26c-1.65 0-3 1.35-3 3v26c0 1.65 1.35 3 3 3h13v-14h-4v-4h4v-2c0-3.306 2.694-6 6-6h4v4h-4c-1.1 0-2 0.9-2 2v2h6l-1 4h-5v14h9c1.65 0 3-1.35 3-3v-26c0-1.65-1.35-3-3-3z"></path>
</symbol><symbol id="icon-twitter" viewBox="0 0 32 32">
<path d="M32 7.075c-1.175 0.525-2.444 0.875-3.769 1.031 1.356-0.813 2.394-2.1 2.887-3.631-1.269 0.75-2.675 1.3-4.169 1.594-1.2-1.275-2.906-2.069-4.794-2.069-3.625 0-6.563 2.938-6.563 6.563 0 0.512 0.056 1.012 0.169 1.494-5.456-0.275-10.294-2.888-13.531-6.862-0.563 0.969-0.887 2.1-0.887 3.3 0 2.275 1.156 4.287 2.919 5.463-1.075-0.031-2.087-0.331-2.975-0.819 0 0.025 0 0.056 0 0.081 0 3.181 2.263 5.838 5.269 6.437-0.55 0.15-1.131 0.231-1.731 0.231-0.425 0-0.831-0.044-1.237-0.119 0.838 2.606 3.263 4.506 6.131 4.563-2.25 1.762-5.075 2.813-8.156 2.813-0.531 0-1.050-0.031-1.569-0.094 2.913 1.869 6.362 2.95 10.069 2.95 12.075 0 18.681-10.006 18.681-18.681 0-0.287-0.006-0.569-0.019-0.85 1.281-0.919 2.394-2.075 3.275-3.394z"></path>
</symbol><symbol id="icon-youtube" viewBox="0 0 32 32">
<path d="M31.681 9.6c0 0-0.313-2.206-1.275-3.175-1.219-1.275-2.581-1.281-3.206-1.356-4.475-0.325-11.194-0.325-11.194-0.325h-0.012c0 0-6.719 0-11.194 0.325-0.625 0.075-1.987 0.081-3.206 1.356-0.963 0.969-1.269 3.175-1.269 3.175s-0.319 2.588-0.319 5.181v2.425c0 2.587 0.319 5.181 0.319 5.181s0.313 2.206 1.269 3.175c1.219 1.275 2.819 1.231 3.531 1.369 2.563 0.244 10.881 0.319 10.881 0.319s6.725-0.012 11.2-0.331c0.625-0.075 1.988-0.081 3.206-1.356 0.962-0.969 1.275-3.175 1.275-3.175s0.319-2.587 0.319-5.181v-2.425c-0.006-2.588-0.325-5.181-0.325-5.181zM12.694 20.15v-8.994l8.644 4.513-8.644 4.481z"></path>
</symbol><symbol id="icon-linkedin" viewBox="0 0 32 32">
<path d="M12 12h5.535v2.837h0.079c0.77-1.381 2.655-2.837 5.464-2.837 5.842 0 6.922 3.637 6.922 8.367v9.633h-5.769v-8.54c0-2.037-0.042-4.657-3.001-4.657-3.005 0-3.463 2.218-3.463 4.509v8.688h-5.767v-18z"></path>
<path d="M2 12h6v18h-6v-18z"></path>
<path d="M8 7c0 1.657-1.343 3-3 3s-3-1.343-3-3c0-1.657 1.343-3 3-3s3 1.343 3 3z"></path>
</symbol><symbol id="icon-worning" viewBox="0 0 34 32">
<path d="M34.125 29.23c0 0.819-0.281 1.444-0.843 1.874s-1.252 0.646-2.070 0.646h-28.3c-0.818 0-1.507-0.221-2.070-0.662s-0.843-1.061-0.843-1.858c0-0.63 0.184-1.27 0.552-1.921l14.134-25.326c0.675-1.155 1.472-1.732 2.392-1.732s1.697 0.578 2.33 1.732l14.165 25.358c0.368 0.672 0.552 1.302 0.552 1.89zM19.193 13.133v-4.599h-4.262v4.599c0 0.294 0.020 0.572 0.061 0.835s0.097 0.557 0.169 0.882c0.072 0.325 0.128 0.604 0.169 0.835l0.797 5.103h1.809l0.828-5.103c0.041-0.21 0.102-0.483 0.184-0.819s0.143-0.635 0.184-0.898c0.041-0.262 0.061-0.541 0.061-0.835zM19.193 25.324c0-0.609-0.209-1.123-0.629-1.544s-0.925-0.63-1.518-0.63c-0.572 0-1.068 0.21-1.487 0.63s-0.629 0.934-0.629 1.544c0 0.609 0.21 1.129 0.629 1.559s0.915 0.646 1.487 0.646c0.593 0 1.099-0.215 1.518-0.646s0.629-0.95 0.629-1.559z"></path>
</symbol><symbol id="icon-arrow-back" viewBox="0 0 32 32">
<path d="M12.586 27.414l-10-10c-0.781-0.781-0.781-2.047 0-2.828l10-10c0.781-0.781 2.047-0.781 2.828 0s0.781 2.047 0 2.828l-6.586 6.586h19.172c1.105 0 2 0.895 2 2s-0.895 2-2 2h-19.172l6.586 6.586c0.39 0.39 0.586 0.902 0.586 1.414s-0.195 1.024-0.586 1.414c-0.781 0.781-2.047 0.781-2.828 0z"></path>
</symbol></defs></svg>